
Genre:Animation | Adventure | Fantasy
Language:English  http://www.imdb.com/title/tt1219342/
Source:D:720p.Bluray.x264-CBGB
Subtitles:Romana

Format : Matroska
File size : 1.80 GiB
Duration : 1h 36mn
Overall bit rate : 2 663 Kbps


Video
Codec ID : V_MPEG4/ISO/AVC
Duration : 1h 36mn
Bit rate : 2 300 Kbps
Width : 1 280 pixels
Height : 544 pixels
Display aspect ratio : 2.35:1
Frame rate mode : Variable
Frame rate : 23.976 fps
Color space : YUV
Chroma subsampling : 4:2:0
Bit depth : 8 bits
Scan type : Progressive
Bits/(Pixel*Frame) : 0.138
Stream size : 1.51 GiB (84%)
Writing library : x264 core 106 r1732 b20059a


Audio
ID : 2
Format : AC-3
Format/Info : Audio Coding 3
Mode extension : CM (complete main)
Codec ID : A_AC3
Duration : 1h 36mn
Bit rate mode : Constant
Bit rate : 384 Kbps
Channel(s) : 6 channels
Channel positions : Front: L C R, Side: L R, LFE
Sampling rate : 48.0 KHz
Bit depth : 16 bits
Video delay : -1mn 5s
Stream size : 266 MiB (14%)
Language : English


Plot:
Soren, a young barn owl, is kidnapped by owls of St. Aggie's, ostensibly an orphanage, where owlets are brainwashed into becoming soldiers. He and his new friends escape to the island of Ga'Hoole, to assist its noble, wise owls who fight the army being created by the wicked rulers of St. Aggie's. The film is based on the first three books in the series.

